<!DOCTYPE svg PUBLIC "-//W3C//DTD SVG 20010904//EN" "http://www.w3.org/TR/2001/REC-SVG-20010904/DTD/svg10.dtd">
<svg version="1.0" xmlns="http://www.w3.org/2000/svg" width="407px" height="382px" viewBox="0 0 4070 3820" preserveAspectRatio="xMidYMid meet">
<g id="layer101" fill="#56c501" stroke="none">
 <path d="M1960 3762 c0 -5 -60 -12 -132 -15 -76 -4 -134 -11 -136 -17 -2 -5 -19 -10 -37 -10 -33 0 -114 -22 -145 -39 -9 -5 -30 -12 -49 -16 -18 -4 -44 -13 -59 -21 -15 -8 -33 -14 -39 -14 -7 0 -13 -4 -13 -10 0 -5 -8 -10 -17 -10 -22 0 -143 -61 -143 -72 0 -4 -6 -8 -13 -8 -14 0 -127 -73 -185 -119 -45 -36 -272 -261 -272 -270 0 -4 -13 -22 -30 -41 -16 -18 -32 -42 -36 -52 -3 -10 -10 -18 -15 -18 -5 0 -9 -7 -9 -15 0 -8 -3 -15 -8 -15 -4 0 -19 -21 -32 -47 -14 -27 -28 -50 -31 -53 -4 -3 -18 -30 -31 -60 -14 -30 -35 -76 -47 -102 -11 -26 -21 -54 -21 -62 0 -9 -4 -16 -9 -16 -5 0 -12 -20 -15 -45 -4 -24 -11 -47 -16 -50 -5 -3 -12 -34 -15 -70 -4 -36 -11 -65 -15 -65 -9 0 -15 -45 -30 -220 -12 -135 9 -450 30 -450 4 0 10 -28 14 -61 3 -34 10 -67 15 -73 5 -6 12 -30 16 -53 4 -24 10 -43 15 -43 5 0 11 -18 15 -40 4 -22 11 -40 16 -40 5 0 9 -5 9 -11 0 -14 60 -142 70 -149 4 -3 11 -16 15 -30 4 -14 10 -27 14 -30 3 -3 28 -38 56 -79 27 -41 58 -85 70 -99 43 -54 253 -262 263 -262 6 0 15 -6 19 -13 4 -7 22 -21 38 -32 17 -10 35 -23 42 -29 31 -28 41 -34 61 -40 12 -4 22 -11 22 -16 0 -5 13 -11 30 -15 16 -4 30 -10 30 -14 0 -8 132 -71 149 -71 6 0 11 -4 11 -9 0 -5 18 -12 40 -16 22 -4 40 -10 40 -15 0 -5 19 -11 43 -15 23 -3 51 -10 62 -14 11 -5 33 -14 48 -20 15 -6 59 -14 98 -17 38 -4 72 -11 75 -15 7 -12 474 -12 474 0 0 4 35 11 77 15 42 3 82 11 87 16 6 6 20 10 33 10 13 0 23 4 23 9 0 4 19 11 43 14 24 3 56 13 72 21 17 9 40 16 53 16 12 0 22 4 22 9 0 5 14 12 30 16 17 4 30 11 30 16 0 5 7 9 16 9 14 0 72 27 84 40 3 3 16 11 30 18 62 31 133 78 178 120 14 12 29 22 33 22 10 0 231 222 272 273 15 19 27 39 27 45 0 6 3 12 8 14 11 5 52 66 52 78 0 5 3 10 8 10 4 0 16 17 27 38 11 20 22 39 25 42 12 11 50 98 50 114 0 9 4 16 10 16 5 0 12 16 16 35 3 19 10 35 15 35 5 0 9 9 9 19 0 11 4 22 9 26 6 3 13 26 17 50 3 25 10 48 14 50 5 3 12 31 16 63 4 31 12 60 18 64 16 10 15 639 -1 659 -6 8 -14 40 -18 72 -4 31 -11 57 -16 57 -5 0 -9 11 -9 25 0 25 -28 106 -40 115 -4 3 -10 22 -14 43 -4 20 -11 37 -16 37 -6 0 -10 5 -10 11 0 5 -9 30 -20 55 -16 34 -26 44 -44 44 -14 0 -26 -6 -29 -12 -3 -10 -41 -13 -148 -13 -135 0 -146 -2 -176 -23 -18 -13 -33 -27 -33 -32 0 -5 -6 -15 -13 -22 -74 -76 -83 -127 -42 -240 14 -38 25 -82 25 -98 0 -16 5 -32 10 -35 13 -8 13 -289 1 -313 -5 -9 -14 -46 -20 -82 -7 -36 -14 -80 -17 -97 -4 -18 -10 -33 -15 -33 -5 0 -9 -9 -9 -21 0 -18 -11 -46 -56 -146 -8 -17 -14 -36 -14 -42 0 -6 -4 -11 -10 -11 -5 0 -10 -5 -10 -11 0 -22 -102 -168 -162 -230 -26 -28 -26 -29 -30 -207 -3 -160 -5 -182 -22 -201 -11 -12 -25 -21 -32 -21 -16 0 -72 30 -98 52 -11 10 -29 21 -40 24 -12 4 -23 10 -26 13 -8 11 -110 71 -120 71 -6 0 -10 -4 -10 -9 0 -5 -18 -11 -40 -15 -22 -3 -40 -10 -40 -15 0 -5 -26 -12 -57 -16 -32 -4 -64 -12 -71 -17 -16 -14 -332 -14 -341 0 -3 5 -30 13 -59 17 -30 4 -66 13 -80 21 -15 8 -35 14 -44 14 -10 0 -18 5 -18 10 0 6 -6 10 -14 10 -13 0 -75 29 -86 40 -9 9 -44 30 -67 40 -13 5 -23 14 -23 20 0 5 -11 12 -25 16 -14 3 -25 10 -25 15 0 5 -16 9 -35 9 -19 0 -35 -4 -35 -9 0 -4 -28 -12 -62 -15 -35 -4 -67 -11 -73 -15 -5 -5 -30 -11 -54 -15 -56 -9 -81 11 -81 65 0 21 4 40 9 43 5 4 12 30 16 59 4 28 12 58 18 66 16 19 16 183 0 188 -7 3 -13 10 -13 16 0 7 -14 39 -30 72 -16 33 -30 70 -30 83 0 12 -4 22 -9 22 -5 0 -12 26 -16 58 -4 31 -12 60 -19 64 -15 10 -16 499 0 519 6 8 15 35 18 62 4 26 14 59 22 75 7 15 14 35 14 45 0 9 3 17 8 17 7 0 42 73 42 89 0 5 7 11 15 15 8 3 15 12 15 21 0 8 4 15 9 15 5 0 13 9 16 20 4 12 35 49 69 83 85 84 107 102 158 129 23 13 45 25 48 28 3 3 24 14 47 25 24 11 43 23 43 26 0 4 20 10 45 13 25 4 45 11 45 16 0 4 28 11 63 15 34 4 65 12 69 19 10 15 460 15 479 -1 8 -6 51 -14 97 -18 45 -4 82 -11 82 -15 0 -4 19 -10 43 -13 24 -3 61 -15 83 -26 102 -51 126 -61 138 -61 8 0 16 -7 20 -15 3 -8 12 -15 20 -15 8 0 16 -3 18 -8 2 -4 23 -23 48 -42 25 -19 49 -40 53 -47 14 -23 33 -14 55 25 23 41 56 77 104 114 16 13 40 32 53 43 13 11 46 31 72 45 26 14 50 28 53 32 3 4 25 10 48 14 24 4 42 12 42 19 0 15 -139 155 -153 155 -5 0 -20 11 -32 24 -23 25 -119 90 -165 112 -8 4 -17 10 -20 14 -11 12 -129 70 -144 70 -9 0 -16 4 -16 9 0 5 -14 12 -31 16 -17 4 -42 13 -57 21 -15 8 -37 14 -49 14 -13 0 -23 5 -23 10 0 6 -11 10 -24 10 -14 0 -27 4 -31 9 -3 5 -31 13 -63 17 -31 3 -62 10 -68 15 -6 5 -68 12 -138 16 -69 3 -126 10 -126 15 0 4 -29 8 -65 8 -36 0 -65 -4 -65 -8z"/>
 <path d="M1680 2451 c0 -4 -23 -11 -52 -14 -28 -4 -56 -11 -62 -17 -5 -5 -17 -10 -26 -10 -36 0 -190 -126 -190 -155 0 -8 -4 -15 -9 -15 -5 0 -12 -13 -16 -30 -4 -16 -10 -30 -15 -30 -8 0 -13 -20 -31 -126 l-11 -62 -26 14 c-15 8 -33 14 -39 14 -7 0 -13 5 -13 10 0 16 -47 11 -54 -6 -10 -27 -7 -44 9 -44 8 0 15 -4 15 -8 0 -5 25 -17 55 -27 78 -27 72 -45 -15 -45 l-70 0 0 -30 0 -30 75 0 c66 0 75 -2 75 -19 0 -15 -10 -19 -52 -25 -29 -3 -68 -6 -85 -6 -30 0 -33 -3 -33 -32 l0 -31 95 6 c80 5 95 4 95 -8 0 -8 4 -15 9 -15 5 0 12 -18 16 -40 4 -22 11 -40 15 -40 5 0 11 -13 15 -30 4 -16 11 -30 16 -30 5 0 9 -5 9 -11 0 -24 168 -209 190 -209 5 0 15 -6 22 -12 11 -11 73 -43 170 -90 10 -4 42 -11 73 -14 31 -4 58 -11 61 -15 7 -13 214 -11 214 1 0 6 16 10 35 10 44 0 149 36 195 67 19 12 40 23 47 23 7 0 13 4 13 9 0 5 9 13 20 16 11 4 46 33 78 65 72 75 74 77 103 131 13 24 28 47 33 50 9 7 46 0 61 -12 6 -4 27 -10 48 -14 20 -4 37 -11 37 -16 0 -5 12 -9 26 -9 23 0 25 3 22 38 -3 35 -5 37 -48 46 -25 5 -47 13 -50 17 -3 4 -16 9 -29 10 -14 2 -26 10 -29 18 -4 11 11 13 82 9 l86 -4 0 27 c0 31 -18 39 -92 39 -33 0 -48 4 -48 13 0 22 22 37 55 37 16 0 47 5 68 11 33 9 38 14 35 37 -2 21 -9 28 -32 30 -16 2 -33 -1 -39 -7 -6 -6 -24 -11 -39 -11 l-28 0 0 94 c0 52 -4 97 -9 100 -4 3 -11 25 -15 48 -4 23 -18 57 -31 74 -14 18 -25 35 -25 39 0 13 -84 95 -97 95 -7 0 -13 4 -13 9 0 5 -10 13 -22 17 -13 4 -25 9 -28 13 -12 14 -70 41 -89 41 -12 0 -21 4 -21 9 0 6 -21 13 -47 17 -27 3 -53 11 -59 15 -6 5 -48 12 -93 16 -44 3 -81 10 -81 14 0 5 -92 9 -205 9 -113 0 -205 -4 -205 -9z"/>
 </g>
<g id="layer102" fill="#dbf3c9" stroke="none">
 <path d="M1960 3762 c0 -5 -60 -12 -132 -15 -76 -4 -134 -11 -136 -17 -2 -5 -19 -10 -37 -10 -33 0 -114 -22 -145 -39 -9 -5 -30 -12 -49 -16 -18 -4 -44 -13 -59 -21 -15 -8 -33 -14 -39 -14 -7 0 -13 -4 -13 -10 0 -5 -8 -10 -17 -10 -22 0 -143 -61 -143 -72 0 -4 -6 -8 -13 -8 -14 0 -127 -73 -185 -119 -45 -36 -272 -261 -272 -270 0 -4 -13 -22 -30 -41 -16 -18 -32 -42 -36 -52 -3 -10 -10 -18 -15 -18 -5 0 -9 -7 -9 -15 0 -8 -3 -15 -8 -15 -4 0 -19 -21 -32 -47 -14 -27 -28 -50 -31 -53 -4 -3 -18 -30 -31 -60 -14 -30 -35 -76 -47 -102 -11 -26 -21 -54 -21 -62 0 -9 -4 -16 -9 -16 -5 0 -11 -19 -15 -42 -4 -23 -11 -47 -15 -53 -5 -5 -12 -37 -15 -70 -6 -59 -6 -59 22 35 121 412 371 747 723 969 164 102 399 191 604 226 137 24 385 24 529 1 322 -52 626 -200 863 -420 61 -56 70 -76 35 -76 -31 0 -116 -46 -199 -108 -73 -54 -112 -96 -148 -157 -10 -16 -16 -13 -62 28 -72 63 -172 120 -276 156 -92 32 -117 37 -117 22 0 -4 19 -11 43 -14 24 -3 61 -15 83 -26 102 -51 126 -61 138 -61 8 0 16 -7 20 -15 3 -8 12 -15 20 -15 8 0 16 -3 18 -8 2 -4 23 -23 48 -42 25 -19 49 -40 53 -47 14 -23 33 -14 55 25 23 41 56 77 104 114 16 13 40 32 53 43 13 11 46 31 72 45 26 14 50 28 53 32 3 4 25 10 48 14 24 4 42 12 42 19 0 15 -139 155 -153 155 -5 0 -20 11 -32 24 -23 25 -119 90 -165 112 -8 4 -17 10 -20 14 -11 12 -129 70 -144 70 -9 0 -16 4 -16 9 0 5 -14 12 -31 16 -17 4 -42 13 -57 21 -15 8 -37 14 -49 14 -13 0 -23 5 -23 10 0 6 -11 10 -24 10 -14 0 -27 4 -31 9 -3 5 -31 13 -63 17 -31 3 -62 10 -68 15 -6 5 -68 12 -138 16 -69 3 -126 10 -126 15 0 4 -29 8 -65 8 -36 0 -65 -4 -65 -8z"/>
 <path d="M1713 3215 c-141 -25 -312 -96 -412 -169 -58 -43 -157 -146 -200 -209 -48 -71 -100 -190 -129 -297 -23 -86 -25 -113 -26 -295 -1 -162 3 -215 17 -279 28 -116 53 -190 100 -289 l41 -89 -37 -146 c-21 -81 -37 -155 -37 -164 0 -29 37 -58 73 -58 17 0 73 12 122 25 89 24 90 25 30 19 -33 -3 -64 -9 -70 -14 -5 -4 -30 -10 -54 -14 -56 -9 -81 11 -81 65 0 21 4 40 9 43 5 4 12 30 16 59 4 28 12 58 18 66 16 19 16 183 0 188 -7 3 -13 10 -13 16 0 7 -14 39 -30 72 -16 33 -30 70 -30 83 0 12 -4 22 -9 22 -5 0 -12 26 -16 58 -4 31 -12 60 -19 64 -15 10 -16 499 0 519 6 8 15 35 18 62 4 26 14 59 22 75 7 15 14 35 14 45 0 9 3 17 8 17 7 0 42 73 42 89 0 5 7 11 15 15 8 3 15 12 15 21 0 8 4 15 9 15 5 0 13 9 16 20 4 12 35 49 69 83 85 84 107 102 158 129 23 13 45 25 48 28 3 3 24 14 47 25 24 11 43 23 43 26 0 4 20 10 45 13 25 4 45 11 45 16 0 4 28 11 63 15 34 4 65 12 69 19 10 15 460 15 479 0 8 -7 50 -14 94 -17 107 -8 57 8 -88 28 -130 18 -394 18 -494 0z"/>
 <path d="M3447 2868 c-3 -10 -41 -13 -148 -13 -135 0 -146 -2 -176 -23 -18 -13 -33 -27 -33 -32 0 -5 -6 -15 -13 -22 -74 -76 -83 -127 -42 -240 14 -38 25 -82 25 -98 0 -16 5 -32 10 -35 13 -8 13 -289 1 -313 -5 -9 -14 -46 -20 -82 -7 -36 -14 -80 -17 -97 -4 -18 -10 -33 -15 -33 -5 0 -9 -9 -9 -21 0 -18 -11 -46 -56 -146 -8 -17 -14 -36 -14 -42 0 -6 -4 -11 -10 -11 -5 0 -10 -5 -10 -11 0 -22 -102 -168 -162 -230 -26 -28 -26 -29 -30 -207 -3 -160 -5 -182 -22 -201 -11 -12 -25 -21 -32 -21 -16 0 -72 30 -98 52 -11 10 -29 21 -40 24 -12 4 -23 10 -26 13 -8 11 -110 71 -120 71 -6 0 -10 -4 -10 -9 0 -5 -18 -11 -40 -15 -22 -3 -40 -10 -40 -15 0 -5 -26 -12 -57 -16 -32 -4 -64 -12 -71 -17 -16 -14 -332 -14 -341 0 -3 5 -30 13 -59 17 -30 4 -66 13 -80 21 -15 8 -35 14 -44 14 -10 0 -18 5 -18 10 0 6 -6 10 -14 10 -13 0 -75 29 -86 40 -9 9 -44 30 -67 40 -13 5 -23 14 -23 20 0 5 -11 12 -25 16 -14 3 -25 10 -25 15 0 5 -16 9 -35 9 -19 0 -35 -5 -35 -11 0 -7 9 -9 23 -5 18 4 38 -5 78 -35 74 -56 238 -134 334 -159 173 -46 404 -36 574 25 l68 25 124 -75 c130 -79 165 -89 198 -56 16 16 20 42 26 201 l7 182 41 46 c256 295 368 767 261 1102 -37 115 -33 147 24 221 69 92 90 101 188 87 77 -11 138 -3 205 26 13 6 25 -13 63 -98 75 -172 120 -349 140 -551 2 -22 2 14 0 79 -2 65 -8 124 -13 130 -5 6 -12 37 -16 69 -4 31 -11 57 -16 57 -5 0 -9 11 -9 25 0 25 -28 106 -40 115 -4 3 -10 22 -14 43 -4 20 -11 37 -16 37 -6 0 -10 5 -10 11 0 5 -9 30 -20 55 -16 34 -26 44 -44 44 -14 0 -26 -6 -29 -12z"/>
 <path d="M1680 2451 c0 -4 -23 -11 -52 -14 -28 -4 -56 -11 -62 -17 -5 -5 -17 -10 -26 -10 -36 0 -190 -126 -190 -155 0 -8 -4 -15 -9 -15 -5 0 -12 -13 -16 -30 -4 -16 -10 -30 -15 -30 -8 0 -13 -20 -31 -126 l-11 -62 -26 14 c-15 8 -33 14 -39 14 -7 0 -13 5 -13 10 0 16 -47 11 -54 -6 -10 -27 -7 -44 9 -44 8 0 15 -4 15 -8 0 -5 25 -17 55 -27 78 -27 72 -45 -15 -45 l-70 0 0 -30 0 -30 68 2 c41 1 52 3 27 5 -60 5 -85 12 -85 24 0 6 27 9 73 8 l72 -2 0 28 c0 25 -7 31 -65 56 -36 15 -66 34 -68 43 -5 22 8 20 73 -9 39 -17 57 -21 59 -12 2 7 8 42 14 80 21 141 102 256 219 316 112 56 168 66 381 66 105 0 192 3 192 7 0 5 -92 8 -205 8 -113 0 -205 -4 -205 -9z"/>
 <path d="M2168 2426 c328 -63 501 -201 530 -421 5 -38 7 -94 4 -124 l-5 -54 39 6 c21 4 54 9 72 13 25 5 32 3 32 -9 0 -15 -72 -37 -120 -37 -11 0 -24 -9 -30 -19 -21 -40 -13 -48 62 -57 45 -6 73 -14 76 -22 4 -11 -11 -13 -80 -7 -83 7 -85 7 -91 -16 -8 -30 -5 -32 78 -59 79 -25 94 -35 78 -51 -7 -7 -35 -2 -96 20 l-85 30 -51 -79 c-67 -103 -154 -180 -266 -236 -119 -59 -209 -77 -345 -71 -192 9 -341 75 -475 211 -80 81 -144 183 -175 280 -12 37 -13 38 -49 32 -109 -18 -141 -19 -141 -3 0 16 18 22 113 32 47 5 57 10 57 25 0 10 -4 22 -10 25 -5 3 -10 -2 -10 -13 0 -16 -10 -20 -52 -26 -29 -3 -68 -6 -85 -6 -30 0 -33 -3 -33 -32 l0 -31 95 6 c80 5 95 4 95 -8 0 -8 4 -15 9 -15 5 0 12 -18 16 -40 4 -22 11 -40 15 -40 5 0 11 -13 15 -30 4 -16 11 -30 16 -30 5 0 9 -5 9 -11 0 -24 168 -209 190 -209 5 0 15 -6 22 -12 11 -11 73 -43 170 -90 10 -4 42 -11 73 -14 31 -4 58 -11 61 -15 7 -13 214 -11 214 1 0 6 16 10 35 10 44 0 149 36 195 67 19 12 40 23 47 23 7 0 13 4 13 9 0 5 9 13 20 16 11 4 46 33 78 65 72 75 74 77 103 131 13 24 28 47 33 50 9 7 46 0 61 -12 6 -4 27 -10 48 -14 20 -4 37 -11 37 -16 0 -5 12 -9 26 -9 23 0 25 3 22 38 -3 35 -5 37 -48 46 -25 5 -47 13 -50 17 -3 4 -16 9 -29 10 -14 2 -26 10 -29 18 -4 11 11 13 82 9 l86 -4 0 27 c0 31 -18 39 -92 39 -33 0 -48 4 -48 13 0 22 22 37 55 37 16 0 47 5 68 11 33 9 38 14 35 37 -2 21 -9 28 -32 30 -16 2 -33 -1 -39 -7 -6 -6 -24 -11 -39 -11 l-28 0 0 94 c0 52 -4 97 -9 100 -4 3 -11 25 -15 48 -4 23 -18 57 -31 74 -14 18 -25 35 -25 39 0 13 -84 95 -97 95 -7 0 -13 4 -13 9 0 5 -10 13 -22 17 -13 4 -25 9 -28 13 -12 14 -70 41 -89 41 -12 0 -21 4 -21 9 0 6 -21 13 -47 17 -27 3 -53 10 -59 15 -6 5 -47 11 -90 14 l-79 5 73 -14z"/>
 <path d="M376 2378 c-21 -183 -25 -291 -16 -403 15 -172 21 -215 31 -215 11 0 11 5 -6 125 -19 128 -19 281 0 420 18 131 17 125 6 125 -5 0 -12 -24 -15 -52z"/>
 <path d="M3670 1969 c0 -155 -72 -416 -170 -614 -186 -377 -514 -669 -925 -822 -69 -26 -80 -33 -49 -28 23 2 54 12 70 20 16 8 39 15 52 15 12 0 22 4 22 9 0 5 14 12 30 16 17 4 30 11 30 16 0 5 7 9 16 9 14 0 72 27 84 40 3 3 16 11 30 18 62 31 133 78 178 120 14 12 29 22 33 22 10 0 231 222 272 273 15 19 27 39 27 45 0 6 3 12 8 14 11 5 52 66 52 78 0 5 3 10 8 10 4 0 16 17 27 38 11 20 22 39 25 42 12 11 50 98 50 114 0 9 4 16 10 16 5 0 12 16 16 35 3 19 10 35 15 35 5 0 9 9 9 19 0 11 4 22 9 26 6 3 13 26 17 50 3 25 10 48 14 50 5 3 12 31 16 63 4 31 11 60 15 63 10 6 25 249 16 249 -4 0 -7 -19 -7 -41z"/>
 <path d="M405 1696 c3 -33 9 -64 14 -70 5 -6 12 -30 16 -53 4 -24 10 -43 15 -43 5 0 11 -18 15 -40 4 -22 11 -40 16 -40 5 0 9 -5 9 -11 0 -14 60 -142 70 -149 4 -3 11 -16 15 -30 4 -14 10 -27 14 -30 3 -3 28 -38 56 -79 27 -41 58 -85 70 -99 43 -54 253 -262 263 -262 6 0 15 -6 19 -13 4 -7 22 -21 38 -32 17 -10 35 -23 42 -29 31 -28 41 -34 61 -40 12 -4 22 -11 22 -16 0 -5 14 -11 30 -15 17 -4 30 -10 30 -14 0 -8 132 -71 149 -71 6 0 11 -4 11 -9 0 -5 18 -12 40 -16 22 -4 40 -10 40 -15 0 -5 19 -11 43 -15 23 -3 51 -10 62 -14 11 -5 33 -14 48 -20 15 -6 59 -14 98 -17 38 -4 72 -11 75 -15 7 -12 474 -12 474 0 0 4 35 11 77 15 42 3 82 11 87 16 6 6 20 10 33 10 13 0 23 5 23 10 0 13 -4 13 -70 -5 -160 -43 -408 -56 -602 -30 -665 88 -1196 553 -1384 1213 l-24 87 5 -59z"/>
 </g>

</svg>