<?xml version="1.0" encoding="UTF-8"?>
<svg xmlns="http://www.w3.org/2000/svg" xmlns:xlink="http://www.w3.org/1999/xlink" width="120pt" height="120pt" viewBox="0 0 120 120" version="1.1">
<g id="surface1">
<path style=" stroke:none;fill-rule:nonzero;fill:rgb(11.372549%,63.137255%,94.901961%);fill-opacity:1;" d="M 46.085938 90.476562 C 74.386719 90.476562 89.867188 67.027344 89.867188 46.695312 C 89.867188 46.027344 89.867188 45.367188 89.824219 44.707031 C 92.835938 42.527344 95.433594 39.832031 97.5 36.742188 C 94.691406 37.984375 91.710938 38.800781 88.660156 39.160156 C 91.875 37.238281 94.277344 34.214844 95.425781 30.652344 C 92.40625 32.445312 89.101562 33.707031 85.65625 34.386719 C 80.886719 29.3125 73.308594 28.074219 67.167969 31.359375 C 61.03125 34.644531 57.859375 41.636719 59.433594 48.421875 C 47.0625 47.800781 35.535156 41.957031 27.71875 32.34375 C 23.636719 39.375 25.722656 48.367188 32.484375 52.882812 C 30.035156 52.8125 27.640625 52.152344 25.5 50.957031 C 25.5 51.019531 25.5 51.085938 25.5 51.152344 C 25.503906 58.476562 30.664062 64.785156 37.84375 66.238281 C 35.578125 66.855469 33.203125 66.945312 30.898438 66.5 C 32.914062 72.769531 38.691406 77.0625 45.273438 77.1875 C 39.824219 81.46875 33.09375 83.792969 26.164062 83.785156 C 24.9375 83.785156 23.714844 83.710938 22.5 83.566406 C 29.535156 88.082031 37.726562 90.476562 46.085938 90.464844 "/>
</g>
</svg>
