<!DOCTYPE svg PUBLIC "-//W3C//DTD SVG 20010904//EN" "http://www.w3.org/TR/2001/REC-SVG-20010904/DTD/svg10.dtd">
<svg version="1.0" xmlns="http://www.w3.org/2000/svg" width="583px" height="553px" viewBox="0 0 5830 5530" preserveAspectRatio="xMidYMid meet">
<g id="layer101" fill="#49adff" stroke="none">
 <path d="M370 5450 c0 -5 -9 -10 -20 -10 -15 0 -20 -7 -20 -25 0 -14 -4 -25 -10 -25 -5 0 -10 -13 -10 -30 0 -16 5 -30 10 -30 6 0 10 -9 10 -20 0 -11 3 -20 8 -20 4 0 20 -25 37 -55 16 -30 33 -55 37 -55 4 0 8 -8 8 -18 0 -10 9 -24 20 -32 11 -8 20 -22 20 -32 0 -10 3 -18 8 -18 4 0 14 -15 21 -32 8 -18 23 -40 33 -49 10 -9 18 -24 18 -33 0 -9 7 -16 15 -16 9 0 15 -9 15 -25 0 -14 5 -25 10 -25 6 0 10 -8 10 -18 0 -10 9 -24 20 -32 11 -8 20 -22 20 -32 0 -10 5 -18 10 -18 6 0 10 -7 10 -16 0 -15 26 -52 70 -101 11 -12 20 -31 20 -43 0 -11 5 -20 10 -20 6 0 10 -7 10 -15 0 -8 5 -15 10 -15 6 0 10 -7 10 -15 0 -8 5 -15 10 -15 6 0 10 -9 10 -20 0 -11 5 -20 10 -20 6 0 10 -6 10 -13 0 -7 11 -24 25 -39 14 -15 25 -34 25 -43 0 -8 5 -15 10 -15 6 0 10 -7 10 -15 0 -9 9 -25 20 -37 11 -12 20 -28 20 -35 0 -7 5 -13 10 -13 6 0 10 -7 10 -15 0 -8 5 -15 10 -15 6 0 10 -9 10 -19 0 -10 7 -21 15 -25 8 -3 15 -12 15 -21 0 -8 5 -15 10 -15 6 0 10 -7 10 -15 0 -8 5 -15 10 -15 6 0 10 -9 10 -20 0 -11 5 -20 10 -20 6 0 10 -9 10 -19 0 -11 4 -21 8 -23 4 -1 20 -23 34 -48 14 -25 35 -54 45 -65 11 -11 26 -35 33 -52 8 -18 18 -33 22 -33 5 0 8 -9 8 -20 0 -11 5 -20 10 -20 6 0 10 -8 10 -18 0 -10 9 -24 20 -32 11 -8 20 -20 20 -26 0 -6 7 -17 15 -24 8 -7 15 -21 15 -31 0 -11 4 -19 8 -19 5 0 15 -12 23 -27 8 -16 22 -35 31 -44 10 -9 18 -26 18 -38 0 -11 5 -21 10 -21 6 0 10 -6 10 -14 0 -8 11 -24 25 -37 13 -13 25 -30 25 -36 0 -7 5 -13 10 -13 6 0 10 -9 10 -20 0 -12 9 -30 20 -42 11 -12 20 -28 20 -35 0 -7 5 -13 10 -13 6 0 10 -9 10 -20 0 -11 5 -20 10 -20 6 0 10 -4 10 -10 0 -9 25 -42 58 -76 6 -7 12 -19 12 -28 0 -8 5 -18 10 -21 6 -3 10 -14 10 -23 0 -10 9 -24 20 -32 11 -8 20 -22 20 -32 0 -10 5 -18 10 -18 6 0 10 -7 10 -16 0 -8 6 -22 13 -29 26 -30 37 -44 37 -50 0 -3 9 -15 20 -27 11 -12 20 -29 20 -38 0 -9 9 -26 20 -38 11 -12 20 -26 20 -32 0 -5 5 -10 10 -10 6 0 10 -9 10 -20 0 -11 5 -20 10 -20 6 0 10 -7 10 -15 0 -9 7 -18 15 -21 8 -4 15 -15 15 -25 0 -10 5 -19 10 -19 6 0 10 -7 10 -15 0 -8 5 -15 10 -15 6 0 10 -7 10 -15 0 -9 9 -25 20 -37 11 -12 20 -28 20 -35 0 -7 5 -13 10 -13 6 0 10 -7 10 -15 0 -8 4 -15 9 -15 5 0 12 -11 15 -25 4 -14 11 -25 16 -25 6 0 10 -5 10 -10 0 -6 9 -20 20 -32 11 -12 20 -30 20 -40 0 -10 5 -18 10 -18 6 0 10 -9 10 -20 0 -11 5 -20 10 -20 6 0 10 -6 10 -12 0 -7 11 -26 25 -42 13 -15 30 -41 37 -57 7 -16 16 -29 20 -29 5 0 8 -4 8 -9 0 -6 13 -30 30 -54 17 -25 30 -50 30 -56 0 -10 24 -42 58 -77 6 -7 12 -20 12 -28 0 -9 5 -16 10 -16 6 0 10 -8 10 -18 0 -10 8 -27 18 -38 10 -10 26 -36 36 -57 10 -22 25 -46 34 -56 10 -9 23 -29 31 -44 8 -15 18 -27 23 -27 4 0 8 -9 8 -20 0 -11 5 -20 10 -20 6 0 10 -8 10 -18 0 -10 9 -28 20 -40 11 -12 20 -26 20 -32 0 -6 6 -18 13 -25 26 -30 41 -53 81 -127 11 -21 23 -38 26 -38 3 0 12 -16 20 -35 8 -19 17 -35 22 -35 4 0 8 -9 8 -20 0 -11 7 -20 15 -20 8 0 15 -8 15 -18 0 -10 9 -24 20 -32 11 -8 20 -20 20 -27 0 -18 52 -110 83 -144 15 -17 27 -37 27 -45 0 -8 5 -14 10 -14 6 0 10 -8 10 -18 0 -10 9 -24 20 -32 11 -8 20 -25 20 -37 0 -13 3 -23 8 -23 4 0 13 -12 19 -28 7 -15 24 -39 38 -54 14 -15 25 -33 25 -41 0 -7 9 -23 20 -35 11 -12 20 -27 20 -34 0 -8 9 -20 20 -28 11 -8 20 -19 20 -26 0 -20 32 -75 51 -87 10 -6 19 -20 19 -29 0 -10 5 -18 10 -18 6 0 10 -9 10 -20 0 -11 5 -20 10 -20 6 0 10 -9 10 -20 0 -11 5 -20 10 -20 6 0 10 -7 10 -15 0 -8 5 -15 10 -15 6 0 10 -6 10 -12 0 -7 11 -26 25 -42 14 -16 25 -34 25 -40 0 -7 9 -18 20 -26 11 -8 20 -22 20 -32 0 -10 5 -18 10 -18 6 0 10 -9 10 -20 0 -11 3 -20 8 -20 4 0 13 -13 20 -29 17 -39 60 -81 83 -81 11 0 19 -4 19 -10 0 -5 9 -10 19 -10 11 0 23 -4 26 -10 4 -6 200 -10 556 -10 359 0 549 3 549 10 0 6 9 10 21 10 12 0 36 15 55 34 29 29 34 41 34 80 0 25 -4 46 -8 46 -5 0 -14 16 -22 35 -8 19 -17 35 -21 35 -3 0 -13 15 -20 33 -15 36 -32 57 -48 57 -6 0 -11 6 -11 13 0 18 -24 67 -32 67 -5 0 -8 8 -8 18 0 10 -9 28 -20 40 -11 12 -20 28 -20 37 0 8 -4 15 -10 15 -5 0 -10 5 -10 12 0 6 -11 26 -25 44 -14 18 -25 35 -25 39 0 3 -9 15 -20 27 -11 12 -20 29 -20 38 0 9 -9 26 -20 38 -11 12 -20 26 -20 32 0 5 -4 10 -10 10 -5 0 -10 7 -10 15 0 9 -5 21 -10 28 -49 57 -60 74 -60 90 0 9 -4 17 -10 17 -5 0 -10 9 -10 20 0 11 -4 20 -10 20 -5 0 -10 6 -10 13 0 8 -9 22 -20 32 -11 10 -20 23 -20 28 0 6 -11 25 -25 43 -14 18 -25 36 -25 41 0 5 -9 15 -20 23 -11 8 -20 25 -20 37 0 13 -4 23 -10 23 -5 0 -10 9 -10 20 0 11 -4 20 -10 20 -5 0 -10 6 -10 13 0 10 -13 28 -60 84 -5 7 -10 18 -10 26 0 7 -9 23 -20 35 -11 12 -20 26 -20 32 0 6 -9 20 -20 32 -11 12 -20 28 -20 35 0 8 -10 25 -22 38 -37 39 -48 54 -48 64 0 15 -43 91 -52 91 -4 0 -8 9 -8 20 0 11 -4 20 -10 20 -5 0 -10 6 -10 14 0 7 -10 24 -22 38 -27 30 -49 64 -84 136 -15 28 -30 52 -35 52 -5 0 -9 9 -9 20 0 11 -4 20 -10 20 -5 0 -10 7 -10 15 0 7 -6 18 -13 22 -6 4 -19 22 -27 38 -8 17 -17 32 -20 35 -3 3 -14 22 -25 43 -11 20 -25 37 -32 37 -7 0 -13 8 -13 18 0 27 -23 72 -37 72 -7 0 -13 8 -13 18 0 10 -9 24 -20 32 -11 8 -20 25 -20 37 0 13 -4 23 -10 23 -5 0 -10 9 -10 20 0 11 -4 20 -9 20 -5 0 -14 13 -21 30 -7 17 -16 30 -20 30 -4 0 -10 8 -14 18 -7 21 -46 85 -55 92 -4 3 -14 20 -22 38 -8 17 -17 32 -21 32 -5 0 -8 7 -8 15 0 9 -9 25 -20 37 -11 12 -20 28 -20 35 0 7 -7 13 -15 13 -9 0 -15 9 -15 25 0 14 -4 25 -10 25 -5 0 -10 6 -10 13 0 7 -9 23 -20 35 -11 12 -20 28 -20 37 0 8 -4 15 -10 15 -5 0 -10 7 -10 15 0 8 -3 15 -8 15 -4 0 -13 13 -20 30 -8 17 -20 30 -28 30 -8 0 -14 9 -14 20 0 11 -4 20 -10 20 -5 0 -10 6 -10 14 0 19 -42 96 -52 96 -4 0 -8 9 -8 20 0 11 -4 20 -10 20 -5 0 -10 6 -10 13 0 7 -11 24 -25 39 -14 15 -25 34 -25 43 0 8 -4 15 -8 15 -7 0 -36 47 -66 107 -6 13 -14 23 -18 23 -5 0 -8 7 -8 16 0 8 -6 22 -12 29 -30 33 -38 45 -38 55 0 5 -4 10 -10 10 -5 0 -10 9 -10 20 0 11 -4 20 -10 20 -5 0 -10 7 -10 15 0 16 -12 34 -42 63 -10 9 -18 22 -18 30 0 7 -11 28 -25 46 -14 18 -25 36 -25 40 0 4 -9 16 -20 28 -11 12 -20 30 -20 40 0 10 -4 18 -10 18 -5 0 -10 9 -10 20 0 11 -4 20 -9 20 -5 0 -14 14 -21 30 -7 17 -16 30 -20 30 -5 0 -21 25 -35 55 -15 30 -31 55 -36 55 -5 0 -9 9 -9 20 0 11 -4 20 -10 20 -5 0 -10 7 -10 15 0 8 -4 15 -10 15 -5 0 -10 7 -10 16 0 18 -23 44 -39 44 -6 0 -11 9 -11 20 0 11 -4 20 -10 20 -5 0 -10 11 -10 25 0 14 -4 25 -10 25 -5 0 -10 6 -10 13 0 7 -9 23 -20 35 -11 12 -20 28 -20 37 0 8 -4 15 -10 15 -5 0 -10 6 -10 13 0 7 -16 31 -35 53 -19 21 -35 45 -35 52 0 6 -4 12 -10 12 -5 0 -10 11 -10 25 0 14 -4 25 -10 25 -5 0 -10 6 -10 13 0 7 -9 23 -20 35 -11 12 -20 28 -20 37 0 8 -3 15 -8 15 -4 0 -16 16 -26 35 -11 19 -23 35 -28 35 -4 0 -8 8 -8 18 0 10 -9 24 -20 32 -11 8 -20 22 -20 30 0 9 -9 26 -20 38 -11 12 -20 28 -20 37 0 8 -4 15 -10 15 -5 0 -10 7 -10 15 0 9 -7 18 -15 21 -8 4 -15 15 -15 25 0 10 -4 19 -10 19 -5 0 -10 7 -10 15 0 8 -4 15 -10 15 -5 0 -10 9 -10 20 0 11 -4 20 -10 20 -5 0 -10 9 -10 20 0 11 -4 20 -8 20 -5 0 -15 12 -23 28 -7 15 -24 41 -36 58 -13 17 -23 35 -23 40 0 9 -29 46 -71 92 -13 13 -33 22 -50 22 -16 0 -29 5 -29 10 0 7 -207 10 -600 10 -393 0 -600 -3 -600 -10z"/>
 <path d="M3015 5447 c-29 -18 -45 -34 -45 -46 0 -6 -4 -11 -10 -11 -5 0 -10 -24 -10 -53 0 -39 5 -59 20 -75 11 -12 20 -26 20 -32 0 -5 5 -10 10 -10 6 0 10 -9 10 -20 0 -11 3 -20 8 -20 4 0 13 -13 20 -30 8 -16 20 -30 28 -30 8 0 14 -10 14 -25 0 -14 5 -25 10 -25 6 0 10 -6 10 -14 0 -7 14 -27 30 -44 17 -18 30 -39 30 -47 0 -8 5 -15 10 -15 6 0 10 -9 10 -19 0 -11 11 -28 25 -39 14 -11 25 -27 25 -36 0 -9 5 -16 10 -16 6 0 10 -9 10 -20 0 -11 5 -20 10 -20 6 0 10 -7 10 -15 0 -8 9 -20 20 -27 11 -7 20 -19 20 -26 0 -12 20 -53 31 -62 3 -3 14 -20 24 -37 11 -18 23 -33 27 -33 4 0 8 -9 8 -20 0 -11 5 -20 10 -20 6 0 10 -7 10 -16 0 -9 8 -24 18 -33 9 -9 24 -29 32 -46 17 -34 25 -46 58 -80 12 -13 22 -33 22 -45 0 -11 5 -20 10 -20 6 0 10 -8 10 -18 0 -10 9 -24 20 -32 11 -8 20 -19 20 -24 0 -5 11 -24 25 -42 14 -18 25 -37 25 -43 0 -6 5 -11 10 -11 6 0 10 -8 10 -18 0 -10 9 -24 20 -32 11 -8 20 -21 20 -30 0 -8 9 -26 20 -40 11 -14 20 -29 20 -33 0 -12 27 -37 39 -37 6 0 11 -9 11 -20 0 -11 5 -20 10 -20 6 0 10 -9 10 -20 0 -12 9 -30 20 -42 11 -12 20 -28 20 -35 0 -7 5 -13 10 -13 6 0 10 -9 10 -20 0 -11 5 -20 10 -20 6 0 10 -5 10 -11 0 -6 16 -29 35 -52 19 -22 35 -47 35 -54 0 -7 5 -13 10 -13 6 0 10 -8 10 -18 0 -10 9 -28 20 -40 11 -12 20 -28 20 -37 0 -8 4 -15 9 -15 5 0 14 -13 21 -30 7 -16 19 -30 26 -30 8 0 14 -7 14 -15 0 -8 5 -15 10 -15 6 0 10 -9 10 -20 0 -11 5 -20 10 -20 6 0 10 -9 10 -20 0 -11 5 -20 10 -20 6 0 10 -5 10 -11 0 -6 14 -30 30 -54 17 -24 30 -48 30 -54 0 -6 7 -11 15 -11 8 0 15 -9 15 -20 0 -11 5 -20 10 -20 6 0 10 -7 10 -15 0 -8 5 -15 10 -15 6 0 10 -9 10 -20 0 -11 5 -20 10 -20 6 0 10 -7 10 -16 0 -9 13 -28 28 -42 16 -15 32 -39 36 -54 3 -16 11 -28 16 -28 6 0 10 -6 10 -13 0 -7 9 -19 20 -27 11 -8 20 -22 20 -32 0 -10 5 -18 10 -18 6 0 10 -7 10 -16 0 -9 10 -24 23 -35 21 -17 50 -18 625 -19 l604 0 29 29 c26 27 29 36 29 95 0 36 -4 66 -9 66 -5 0 -16 16 -25 35 -9 19 -21 35 -26 35 -6 0 -10 9 -10 20 0 11 -4 20 -10 20 -5 0 -10 6 -10 13 0 7 -9 23 -20 35 -11 12 -20 28 -20 37 0 8 -4 15 -10 15 -5 0 -10 7 -10 15 0 8 -4 15 -9 15 -5 0 -14 14 -21 30 -7 17 -19 30 -26 30 -8 0 -14 10 -14 25 0 14 -4 25 -10 25 -5 0 -10 8 -10 18 0 10 -9 24 -20 32 -11 8 -20 22 -20 32 0 10 -4 18 -10 18 -5 0 -10 6 -10 13 0 7 -16 32 -35 54 -19 23 -35 46 -35 52 0 6 -4 11 -10 11 -5 0 -10 6 -10 14 0 19 -42 96 -52 96 -4 0 -8 6 -8 13 0 6 -11 25 -25 41 -14 16 -25 34 -25 40 0 7 -9 18 -20 26 -11 8 -20 22 -20 32 0 10 -4 18 -10 18 -5 0 -10 9 -10 20 0 11 -4 20 -10 20 -5 0 -10 7 -10 15 0 8 -4 15 -10 15 -5 0 -10 6 -10 14 0 7 -10 24 -23 37 -12 13 -29 36 -36 52 -8 15 -18 27 -23 27 -4 0 -8 9 -8 20 0 11 -4 20 -10 20 -5 0 -10 9 -10 20 0 11 -4 20 -10 20 -5 0 -10 6 -10 13 0 7 -8 22 -17 33 -22 24 -37 48 -59 92 -9 17 -19 32 -23 32 -4 0 -13 16 -21 35 -8 19 -17 35 -22 35 -4 0 -8 7 -8 15 0 16 -8 29 -47 71 -13 14 -23 31 -23 38 0 7 -8 21 -17 32 -10 10 -24 31 -32 47 -8 15 -18 27 -23 27 -4 0 -8 6 -8 13 0 23 -31 77 -51 90 -10 6 -19 20 -19 29 0 10 -4 18 -10 18 -5 0 -10 9 -10 20 0 11 -4 20 -10 20 -5 0 -10 6 -10 13 0 8 -9 22 -20 32 -11 10 -20 24 -20 32 0 7 -4 13 -10 13 -5 0 -10 9 -10 20 0 11 -3 20 -8 20 -4 0 -16 16 -26 35 -11 19 -23 35 -28 35 -4 0 -8 9 -8 20 0 11 -3 20 -8 20 -4 0 -13 13 -20 28 -6 16 -21 38 -32 50 -11 12 -20 26 -20 32 0 6 -6 18 -12 25 -30 33 -38 45 -38 55 0 5 -4 10 -10 10 -5 0 -10 9 -10 20 0 11 -4 20 -8 20 -5 0 -15 12 -23 28 -43 83 -79 122 -113 122 -14 0 -26 5 -26 10 0 15 -1149 12 -1175 -3z"/>
 </g>

</svg>